<mxfile host="app.diagrams.net" agent="Mozilla/5.0 (X11; Ubuntu; Linux x86_64; rv:141.0) Gecko/20100101 Firefox/141.0" version="28.0.7">
  <diagram name="Page-1" id="riSyCdziQ44Gaox9rprG">
    <mxGraphModel dx="981" dy="489" grid="1" gridSize="10" guides="1" tooltips="1" connect="1" arrows="1" fold="1" page="1" pageScale="1" pageWidth="1400" pageHeight="850" math="0" shadow="0">
      <root>
        <mxCell id="0" />
        <mxCell id="1" parent="0" />
        <mxCell id="gJ2tP0U9PRfCbyiuseB9-1" value="ItemÂ " style="shape=table;childLayout=tableLayout;startSize=40;collapsible=0;recursiveResize=0;expand=0;fontStyle=1;fontSize=14;" vertex="1" parent="1">
          <mxGeometry x="180" y="140" width="920" height="590" as="geometry" />
        </mxCell>
        <mxCell id="gJ2tP0U9PRfCbyiuseB9-2" value="Sales Rep/Manager" style="shape=tableRow;horizontal=0;swimlaneHead=0;swimlaneBody=0;top=0;left=0;strokeColor=inherit;bottom=0;right=0;dropTarget=0;fontStyle=1;fillColor=none;points=[[0,0.5],[1,0.5]];portConstraint=eastwest;startSize=40;collapsible=0;recursiveResize=0;expand=0;" vertex="1" parent="gJ2tP0U9PRfCbyiuseB9-1">
          <mxGeometry y="40" width="920" height="300" as="geometry" />
        </mxCell>
        <mxCell id="gJ2tP0U9PRfCbyiuseB9-3" value="Item Template Creation" style="swimlane;swimlaneHead=0;swimlaneBody=0;fontStyle=1;strokeColor=inherit;connectable=0;fillColor=none;startSize=40;collapsible=0;recursiveResize=0;expand=0;" vertex="1" parent="gJ2tP0U9PRfCbyiuseB9-2">
          <mxGeometry x="40" width="880" height="300" as="geometry">
            <mxRectangle width="880" height="300" as="alternateBounds" />
          </mxGeometry>
        </mxCell>
        <mxCell id="gJ2tP0U9PRfCbyiuseB9-4" value="Start" style="ellipse;shape=doubleEllipse;html=1;dashed=0;whiteSpace=wrap;aspect=fixed;" vertex="1" parent="gJ2tP0U9PRfCbyiuseB9-3">
          <mxGeometry x="10" y="55" width="50" height="50" as="geometry" />
        </mxCell>
        <mxCell id="gJ2tP0U9PRfCbyiuseB9-5" value="Create new Item" style="points=[[0.25,0,0],[0.5,0,0],[0.75,0,0],[1,0.25,0],[1,0.5,0],[1,0.75,0],[0.75,1,0],[0.5,1,0],[0.25,1,0],[0,0.75,0],[0,0.5,0],[0,0.25,0]];shape=mxgraph.bpmn.task2;whiteSpace=wrap;rectStyle=rounded;size=10;html=1;container=1;expand=0;collapsible=0;taskMarker=abstract;isLoopSub=1;" vertex="1" parent="gJ2tP0U9PRfCbyiuseB9-3">
          <mxGeometry x="100" y="50" width="120" height="60" as="geometry" />
        </mxCell>
        <mxCell id="gJ2tP0U9PRfCbyiuseB9-6" value="" style="edgeStyle=orthogonalEdgeStyle;rounded=0;orthogonalLoop=1;jettySize=auto;html=1;" edge="1" parent="gJ2tP0U9PRfCbyiuseB9-3" source="gJ2tP0U9PRfCbyiuseB9-9" target="gJ2tP0U9PRfCbyiuseB9-10">
          <mxGeometry relative="1" as="geometry" />
        </mxCell>
        <mxCell id="gJ2tP0U9PRfCbyiuseB9-7" value="Optional" style="edgeLabel;html=1;align=center;verticalAlign=middle;resizable=0;points=[];" vertex="1" connectable="0" parent="gJ2tP0U9PRfCbyiuseB9-6">
          <mxGeometry x="-0.0204" y="1" relative="1" as="geometry">
            <mxPoint as="offset" />
          </mxGeometry>
        </mxCell>
        <mxCell id="gJ2tP0U9PRfCbyiuseB9-8" value="" style="edgeStyle=orthogonalEdgeStyle;rounded=0;orthogonalLoop=1;jettySize=auto;html=1;" edge="1" parent="gJ2tP0U9PRfCbyiuseB9-3" source="gJ2tP0U9PRfCbyiuseB9-9" target="gJ2tP0U9PRfCbyiuseB9-11">
          <mxGeometry relative="1" as="geometry" />
        </mxCell>
        <mxCell id="gJ2tP0U9PRfCbyiuseB9-9" value="&lt;b&gt;Enter&lt;/b&gt;&lt;br&gt;Item Code&lt;br&gt;Item Name&lt;br&gt;Item Group" style="points=[[0.25,0,0],[0.5,0,0],[0.75,0,0],[1,0.25,0],[1,0.5,0],[1,0.75,0],[0.75,1,0],[0.5,1,0],[0.25,1,0],[0,0.75,0],[0,0.5,0],[0,0.25,0]];shape=mxgraph.bpmn.task2;whiteSpace=wrap;rectStyle=rounded;size=10;html=1;container=1;expand=0;collapsible=0;taskMarker=abstract;" vertex="1" parent="gJ2tP0U9PRfCbyiuseB9-3">
          <mxGeometry x="250" y="50" width="120" height="60" as="geometry" />
        </mxCell>
        <mxCell id="gJ2tP0U9PRfCbyiuseB9-10" value="&lt;b&gt;Enter&lt;/b&gt;&lt;br&gt;Item Description&lt;br&gt;UOM" style="points=[[0.25,0,0],[0.5,0,0],[0.75,0,0],[1,0.25,0],[1,0.5,0],[1,0.75,0],[0.75,1,0],[0.5,1,0],[0.25,1,0],[0,0.75,0],[0,0.5,0],[0,0.25,0]];shape=mxgraph.bpmn.task2;whiteSpace=wrap;rectStyle=rounded;size=10;html=1;container=1;expand=0;collapsible=0;taskMarker=abstract;" vertex="1" parent="gJ2tP0U9PRfCbyiuseB9-3">
          <mxGeometry x="250" y="178" width="120" height="60" as="geometry" />
        </mxCell>
        <mxCell id="gJ2tP0U9PRfCbyiuseB9-11" value="&lt;b&gt;Enable&lt;br&gt;&lt;/b&gt;Has variant" style="points=[[0.25,0,0],[0.5,0,0],[0.75,0,0],[1,0.25,0],[1,0.5,0],[1,0.75,0],[0.75,1,0],[0.5,1,0],[0.25,1,0],[0,0.75,0],[0,0.5,0],[0,0.25,0]];shape=mxgraph.bpmn.task2;whiteSpace=wrap;rectStyle=rounded;size=10;html=1;container=1;expand=0;collapsible=0;taskMarker=abstract;" vertex="1" parent="gJ2tP0U9PRfCbyiuseB9-3">
          <mxGeometry x="400" y="50" width="120" height="60" as="geometry" />
        </mxCell>
        <mxCell id="gJ2tP0U9PRfCbyiuseB9-12" style="edgeStyle=orthogonalEdgeStyle;rounded=0;orthogonalLoop=1;jettySize=auto;html=1;exitX=1;exitY=0.5;exitDx=0;exitDy=0;exitPerimeter=0;entryX=0;entryY=0.5;entryDx=0;entryDy=0;entryPerimeter=0;" edge="1" parent="gJ2tP0U9PRfCbyiuseB9-3" source="gJ2tP0U9PRfCbyiuseB9-5" target="gJ2tP0U9PRfCbyiuseB9-9">
          <mxGeometry relative="1" as="geometry" />
        </mxCell>
        <mxCell id="gJ2tP0U9PRfCbyiuseB9-13" style="edgeStyle=orthogonalEdgeStyle;rounded=0;orthogonalLoop=1;jettySize=auto;html=1;exitX=1;exitY=0.5;exitDx=0;exitDy=0;entryX=0;entryY=0.5;entryDx=0;entryDy=0;entryPerimeter=0;" edge="1" parent="gJ2tP0U9PRfCbyiuseB9-3" source="gJ2tP0U9PRfCbyiuseB9-4" target="gJ2tP0U9PRfCbyiuseB9-5">
          <mxGeometry relative="1" as="geometry" />
        </mxCell>
        <mxCell id="gJ2tP0U9PRfCbyiuseB9-14" value="" style="edgeStyle=orthogonalEdgeStyle;rounded=0;orthogonalLoop=1;jettySize=auto;html=1;" edge="1" parent="gJ2tP0U9PRfCbyiuseB9-3" source="gJ2tP0U9PRfCbyiuseB9-17" target="gJ2tP0U9PRfCbyiuseB9-19">
          <mxGeometry relative="1" as="geometry" />
        </mxCell>
        <mxCell id="gJ2tP0U9PRfCbyiuseB9-15" value="" style="edgeStyle=orthogonalEdgeStyle;rounded=0;orthogonalLoop=1;jettySize=auto;html=1;" edge="1" parent="gJ2tP0U9PRfCbyiuseB9-3" source="gJ2tP0U9PRfCbyiuseB9-17" target="gJ2tP0U9PRfCbyiuseB9-21">
          <mxGeometry relative="1" as="geometry" />
        </mxCell>
        <mxCell id="gJ2tP0U9PRfCbyiuseB9-16" value="Optional" style="edgeLabel;html=1;align=center;verticalAlign=middle;resizable=0;points=[];" vertex="1" connectable="0" parent="gJ2tP0U9PRfCbyiuseB9-15">
          <mxGeometry x="-0.3725" y="1" relative="1" as="geometry">
            <mxPoint as="offset" />
          </mxGeometry>
        </mxCell>
        <mxCell id="gJ2tP0U9PRfCbyiuseB9-17" value="&lt;b&gt;Fill &lt;/b&gt;Attributes in Variant Tab" style="points=[[0.25,0,0],[0.5,0,0],[0.75,0,0],[1,0.25,0],[1,0.5,0],[1,0.75,0],[0.75,1,0],[0.5,1,0],[0.25,1,0],[0,0.75,0],[0,0.5,0],[0,0.25,0]];shape=mxgraph.bpmn.task2;whiteSpace=wrap;rectStyle=rounded;size=10;html=1;container=1;expand=0;collapsible=0;taskMarker=abstract;" vertex="1" parent="gJ2tP0U9PRfCbyiuseB9-3">
          <mxGeometry x="553" y="50" width="120" height="60" as="geometry" />
        </mxCell>
        <mxCell id="gJ2tP0U9PRfCbyiuseB9-18" value="" style="edgeStyle=orthogonalEdgeStyle;rounded=0;orthogonalLoop=1;jettySize=auto;html=1;" edge="1" parent="gJ2tP0U9PRfCbyiuseB9-3" source="gJ2tP0U9PRfCbyiuseB9-11" target="gJ2tP0U9PRfCbyiuseB9-17">
          <mxGeometry relative="1" as="geometry" />
        </mxCell>
        <mxCell id="gJ2tP0U9PRfCbyiuseB9-19" value="&lt;b&gt;Save&lt;/b&gt;" style="points=[[0.25,0,0],[0.5,0,0],[0.75,0,0],[1,0.25,0],[1,0.5,0],[1,0.75,0],[0.75,1,0],[0.5,1,0],[0.25,1,0],[0,0.75,0],[0,0.5,0],[0,0.25,0]];shape=mxgraph.bpmn.task2;whiteSpace=wrap;rectStyle=rounded;size=10;html=1;container=1;expand=0;collapsible=0;taskMarker=abstract;" vertex="1" parent="gJ2tP0U9PRfCbyiuseB9-3">
          <mxGeometry x="702" y="50" width="120" height="60" as="geometry" />
        </mxCell>
        <mxCell id="gJ2tP0U9PRfCbyiuseB9-20" value="" style="shape=image;html=1;verticalAlign=top;verticalLabelPosition=bottom;labelBackgroundColor=#ffffff;imageAspect=0;aspect=fixed;image=https://icons.diagrams.net/icon-cache1/One_bit-2016/onebit_34-1106.png" vertex="1" parent="gJ2tP0U9PRfCbyiuseB9-19">
          <mxGeometry x="77" y="22" width="18" height="18" as="geometry" />
        </mxCell>
        <mxCell id="gJ2tP0U9PRfCbyiuseB9-21" value="&lt;b&gt;Enter&lt;/b&gt;&lt;br&gt;Item Defaults in Accounting Tab" style="points=[[0.25,0,0],[0.5,0,0],[0.75,0,0],[1,0.25,0],[1,0.5,0],[1,0.75,0],[0.75,1,0],[0.5,1,0],[0.25,1,0],[0,0.75,0],[0,0.5,0],[0,0.25,0]];shape=mxgraph.bpmn.task2;whiteSpace=wrap;rectStyle=rounded;size=10;html=1;container=1;expand=0;collapsible=0;taskMarker=abstract;" vertex="1" parent="gJ2tP0U9PRfCbyiuseB9-3">
          <mxGeometry x="553" y="178" width="120" height="60" as="geometry" />
        </mxCell>
        <mxCell id="gJ2tP0U9PRfCbyiuseB9-24" value="LENS" style="shape=tableRow;horizontal=0;swimlaneHead=0;swimlaneBody=0;top=0;left=0;strokeColor=inherit;bottom=0;right=0;dropTarget=0;fontStyle=1;fillColor=none;points=[[0,0.5],[1,0.5]];portConstraint=eastwest;startSize=40;collapsible=0;recursiveResize=0;expand=0;" vertex="1" parent="gJ2tP0U9PRfCbyiuseB9-1">
          <mxGeometry y="340" width="920" height="250" as="geometry" />
        </mxCell>
        <mxCell id="gJ2tP0U9PRfCbyiuseB9-25" style="swimlane;swimlaneHead=0;swimlaneBody=0;fontStyle=1;strokeColor=inherit;connectable=0;fillColor=none;startSize=0;collapsible=0;recursiveResize=0;expand=0;" vertex="1" parent="gJ2tP0U9PRfCbyiuseB9-24">
          <mxGeometry x="40" width="880" height="250" as="geometry">
            <mxRectangle width="880" height="250" as="alternateBounds" />
          </mxGeometry>
        </mxCell>
      </root>
    </mxGraphModel>
  </diagram>
</mxfile>
